<svg xmlns="http://www.w3.org/2000/svg" width="180" height="180" viewBox="0 0 180 180" role="img" aria-label="快连API">
  <defs>
    <linearGradient id="bg" x1="22" y1="20" x2="158" y2="160" gradientUnits="userSpaceOnUse">
      <stop offset="0" stop-color="#16d9ff"/>
      <stop offset="0.48" stop-color="#566bff"/>
      <stop offset="1" stop-color="#b13cff"/>
    </linearGradient>
    <linearGradient id="bolt" x1="58" y1="44" x2="126" y2="135" gradientUnits="userSpaceOnUse">
      <stop offset="0" stop-color="#ffffff"/>
      <stop offset="1" stop-color="#dff7ff"/>
    </linearGradient>
    <filter id="softShadow" x="-20%" y="-20%" width="140%" height="140%">
      <feDropShadow dx="0" dy="10" stdDeviation="12" flood-color="#132047" flood-opacity="0.32"/>
    </filter>
  </defs>
  <rect x="16" y="16" width="148" height="148" rx="42" fill="url(#bg)" filter="url(#softShadow)"/>
  <circle cx="48" cy="68" r="8" fill="#e9fbff" opacity="0.92"/>
  <circle cx="132" cy="112" r="8" fill="#e9fbff" opacity="0.92"/>
  <path d="M56 70c18-22 50-24 70-4" fill="none" stroke="#e9fbff" stroke-width="9" stroke-linecap="round" opacity="0.8"/>
  <path d="M124 110c-18 22-50 24-70 4" fill="none" stroke="#e9fbff" stroke-width="9" stroke-linecap="round" opacity="0.8"/>
  <path d="M98 38 55 96h32l-10 46 48-64H91l7-40Z" fill="url(#bolt)"/>
  <path d="M98 38 55 96h32l-10 46 48-64H91l7-40Z" fill="none" stroke="#ffffff" stroke-opacity="0.5" stroke-width="2" stroke-linejoin="round"/>
</svg>
